<mxfile host="app.diagrams.net" modified="2023-10-28T13:40:22.801Z" agent="Mozilla/5.0 (Windows NT 10.0; Win64; x64) AppleWebKit/537.36 (KHTML, like Gecko) Chrome/116.0.0.0 Safari/537.36 OPR/102.0.0.0" etag="oqXxP90bEFvzk0VGBBvx" version="22.0.8" type="github">
  <diagram name="Page-1" id="e56a1550-8fbb-45ad-956c-1786394a9013">
    <mxGraphModel dx="2559" dy="1600" grid="1" gridSize="10" guides="1" tooltips="1" connect="1" arrows="1" fold="1" page="1" pageScale="1" pageWidth="1100" pageHeight="850" background="none" math="0" shadow="0">
      <root>
        <mxCell id="0" />
        <mxCell id="1" parent="0" />
        <mxCell id="FNh4Q3ipCf9CpvlprsuN-2" value="USER" style="whiteSpace=wrap;html=1;align=center;" vertex="1" parent="1">
          <mxGeometry x="100" y="120" width="100" height="40" as="geometry" />
        </mxCell>
        <mxCell id="FNh4Q3ipCf9CpvlprsuN-4" value="ADRESS" style="whiteSpace=wrap;html=1;align=center;" vertex="1" parent="1">
          <mxGeometry x="840" y="120" width="100" height="40" as="geometry" />
        </mxCell>
        <mxCell id="FNh4Q3ipCf9CpvlprsuN-5" value="ACCOMODATION" style="whiteSpace=wrap;html=1;align=center;" vertex="1" parent="1">
          <mxGeometry x="840" y="480" width="100" height="40" as="geometry" />
        </mxCell>
        <mxCell id="FNh4Q3ipCf9CpvlprsuN-6" value="PRICELIST" style="whiteSpace=wrap;html=1;align=center;" vertex="1" parent="1">
          <mxGeometry x="650" y="740" width="100" height="40" as="geometry" />
        </mxCell>
        <mxCell id="FNh4Q3ipCf9CpvlprsuN-7" value="RESERVATION" style="whiteSpace=wrap;html=1;align=center;" vertex="1" parent="1">
          <mxGeometry x="440" y="490" width="100" height="40" as="geometry" />
        </mxCell>
        <mxCell id="FNh4Q3ipCf9CpvlprsuN-8" value="NOTIFICATION" style="whiteSpace=wrap;html=1;align=center;" vertex="1" parent="1">
          <mxGeometry x="140" y="680" width="100" height="40" as="geometry" />
        </mxCell>
        <mxCell id="FNh4Q3ipCf9CpvlprsuN-9" value="REPORT" style="whiteSpace=wrap;html=1;align=center;" vertex="1" parent="1">
          <mxGeometry x="40" y="470" width="100" height="40" as="geometry" />
        </mxCell>
        <mxCell id="FNh4Q3ipCf9CpvlprsuN-10" value="REVIEW" style="whiteSpace=wrap;html=1;align=center;" vertex="1" parent="1">
          <mxGeometry x="160" y="470" width="100" height="40" as="geometry" />
        </mxCell>
        <mxCell id="FNh4Q3ipCf9CpvlprsuN-12" style="edgeStyle=orthogonalEdgeStyle;rounded=0;orthogonalLoop=1;jettySize=auto;html=1;entryX=0;entryY=0.5;entryDx=0;entryDy=0;" edge="1" parent="1">
          <mxGeometry relative="1" as="geometry">
            <mxPoint x="400" y="140" as="sourcePoint" />
            <mxPoint x="480" y="140" as="targetPoint" />
          </mxGeometry>
        </mxCell>
        <mxCell id="FNh4Q3ipCf9CpvlprsuN-13" style="edgeStyle=orthogonalEdgeStyle;rounded=0;orthogonalLoop=1;jettySize=auto;html=1;entryX=1;entryY=0.5;entryDx=0;entryDy=0;" edge="1" parent="1" target="FNh4Q3ipCf9CpvlprsuN-2">
          <mxGeometry relative="1" as="geometry">
            <mxPoint x="280" y="140" as="sourcePoint" />
          </mxGeometry>
        </mxCell>
        <mxCell id="FNh4Q3ipCf9CpvlprsuN-15" value="(0, 1)" style="edgeLabel;html=1;align=center;verticalAlign=middle;resizable=0;points=[];" vertex="1" connectable="0" parent="FNh4Q3ipCf9CpvlprsuN-13">
          <mxGeometry x="0.5035" y="-1" relative="1" as="geometry">
            <mxPoint y="-9" as="offset" />
          </mxGeometry>
        </mxCell>
        <mxCell id="FNh4Q3ipCf9CpvlprsuN-17" value="MOZDA PERSON DA BUDE SLABI ENTITET" style="shape=note;size=20;whiteSpace=wrap;html=1;" vertex="1" parent="1">
          <mxGeometry x="290" y="-20" width="100" height="100" as="geometry" />
        </mxCell>
        <mxCell id="FNh4Q3ipCf9CpvlprsuN-19" style="edgeStyle=orthogonalEdgeStyle;rounded=0;orthogonalLoop=1;jettySize=auto;html=1;entryX=0;entryY=0.5;entryDx=0;entryDy=0;" edge="1" parent="1" source="FNh4Q3ipCf9CpvlprsuN-18" target="FNh4Q3ipCf9CpvlprsuN-4">
          <mxGeometry relative="1" as="geometry" />
        </mxCell>
        <mxCell id="FNh4Q3ipCf9CpvlprsuN-22" value="(0, N)" style="edgeLabel;html=1;align=center;verticalAlign=middle;resizable=0;points=[];" vertex="1" connectable="0" parent="FNh4Q3ipCf9CpvlprsuN-19">
          <mxGeometry x="0.5552" relative="1" as="geometry">
            <mxPoint x="-4" y="-10" as="offset" />
          </mxGeometry>
        </mxCell>
        <mxCell id="FNh4Q3ipCf9CpvlprsuN-20" style="edgeStyle=orthogonalEdgeStyle;rounded=0;orthogonalLoop=1;jettySize=auto;html=1;entryX=1;entryY=0.5;entryDx=0;entryDy=0;" edge="1" parent="1" source="FNh4Q3ipCf9CpvlprsuN-18">
          <mxGeometry relative="1" as="geometry">
            <mxPoint x="580" y="140" as="targetPoint" />
          </mxGeometry>
        </mxCell>
        <mxCell id="FNh4Q3ipCf9CpvlprsuN-21" value="(0, 1)" style="edgeLabel;html=1;align=center;verticalAlign=middle;resizable=0;points=[];" vertex="1" connectable="0" parent="FNh4Q3ipCf9CpvlprsuN-20">
          <mxGeometry x="0.4326" relative="1" as="geometry">
            <mxPoint y="-10" as="offset" />
          </mxGeometry>
        </mxCell>
        <mxCell id="FNh4Q3ipCf9CpvlprsuN-18" value="HAS" style="shape=rhombus;perimeter=rhombusPerimeter;whiteSpace=wrap;html=1;align=center;" vertex="1" parent="1">
          <mxGeometry x="650" y="110" width="120" height="60" as="geometry" />
        </mxCell>
        <mxCell id="FNh4Q3ipCf9CpvlprsuN-24" style="edgeStyle=orthogonalEdgeStyle;rounded=0;orthogonalLoop=1;jettySize=auto;html=1;entryX=0.5;entryY=1;entryDx=0;entryDy=0;" edge="1" parent="1" source="FNh4Q3ipCf9CpvlprsuN-23" target="FNh4Q3ipCf9CpvlprsuN-4">
          <mxGeometry relative="1" as="geometry" />
        </mxCell>
        <mxCell id="FNh4Q3ipCf9CpvlprsuN-26" value="(0, 1)" style="edgeLabel;html=1;align=center;verticalAlign=middle;resizable=0;points=[];" vertex="1" connectable="0" parent="FNh4Q3ipCf9CpvlprsuN-24">
          <mxGeometry x="0.4232" y="-1" relative="1" as="geometry">
            <mxPoint x="19" as="offset" />
          </mxGeometry>
        </mxCell>
        <mxCell id="FNh4Q3ipCf9CpvlprsuN-25" style="edgeStyle=orthogonalEdgeStyle;rounded=0;orthogonalLoop=1;jettySize=auto;html=1;entryX=0.5;entryY=0;entryDx=0;entryDy=0;" edge="1" parent="1" source="FNh4Q3ipCf9CpvlprsuN-23" target="FNh4Q3ipCf9CpvlprsuN-5">
          <mxGeometry relative="1" as="geometry">
            <mxPoint x="890" y="320" as="targetPoint" />
          </mxGeometry>
        </mxCell>
        <mxCell id="FNh4Q3ipCf9CpvlprsuN-27" value="(1, 1)" style="edgeLabel;html=1;align=center;verticalAlign=middle;resizable=0;points=[];" vertex="1" connectable="0" parent="FNh4Q3ipCf9CpvlprsuN-25">
          <mxGeometry x="0.2283" y="1" relative="1" as="geometry">
            <mxPoint x="19" as="offset" />
          </mxGeometry>
        </mxCell>
        <mxCell id="FNh4Q3ipCf9CpvlprsuN-23" value="LOCATED" style="shape=rhombus;perimeter=rhombusPerimeter;whiteSpace=wrap;html=1;align=center;" vertex="1" parent="1">
          <mxGeometry x="830" y="280" width="120" height="60" as="geometry" />
        </mxCell>
        <mxCell id="FNh4Q3ipCf9CpvlprsuN-29" style="edgeStyle=orthogonalEdgeStyle;rounded=0;orthogonalLoop=1;jettySize=auto;html=1;entryX=0.5;entryY=1;entryDx=0;entryDy=0;" edge="1" parent="1" source="FNh4Q3ipCf9CpvlprsuN-28" target="FNh4Q3ipCf9CpvlprsuN-2">
          <mxGeometry relative="1" as="geometry" />
        </mxCell>
        <mxCell id="FNh4Q3ipCf9CpvlprsuN-30" style="edgeStyle=orthogonalEdgeStyle;rounded=0;orthogonalLoop=1;jettySize=auto;html=1;" edge="1" parent="1" source="FNh4Q3ipCf9CpvlprsuN-28" target="FNh4Q3ipCf9CpvlprsuN-31">
          <mxGeometry relative="1" as="geometry">
            <mxPoint x="30" y="380" as="targetPoint" />
          </mxGeometry>
        </mxCell>
        <mxCell id="FNh4Q3ipCf9CpvlprsuN-33" style="edgeStyle=orthogonalEdgeStyle;rounded=0;orthogonalLoop=1;jettySize=auto;html=1;entryX=0.5;entryY=0;entryDx=0;entryDy=0;" edge="1" parent="1" source="FNh4Q3ipCf9CpvlprsuN-28" target="FNh4Q3ipCf9CpvlprsuN-32">
          <mxGeometry relative="1" as="geometry">
            <Array as="points">
              <mxPoint x="280" y="250" />
            </Array>
          </mxGeometry>
        </mxCell>
        <mxCell id="FNh4Q3ipCf9CpvlprsuN-28" value="IS-A" style="shape=rhombus;double=1;perimeter=rhombusPerimeter;whiteSpace=wrap;html=1;align=center;" vertex="1" parent="1">
          <mxGeometry x="90" y="220" width="120" height="60" as="geometry" />
        </mxCell>
        <mxCell id="FNh4Q3ipCf9CpvlprsuN-31" value="GUEST" style="shape=ext;margin=3;double=1;whiteSpace=wrap;html=1;align=center;" vertex="1" parent="1">
          <mxGeometry x="-30" y="360" width="100" height="40" as="geometry" />
        </mxCell>
        <mxCell id="FNh4Q3ipCf9CpvlprsuN-32" value="HOST" style="shape=ext;margin=3;double=1;whiteSpace=wrap;html=1;align=center;" vertex="1" parent="1">
          <mxGeometry x="230" y="360" width="100" height="40" as="geometry" />
        </mxCell>
        <mxCell id="FNh4Q3ipCf9CpvlprsuN-34" value="REPORT I REVIEW MOGU BITI 2 RAZLICITA TIPA POVEZNIKA IZMEDJU GOSTA I DOMACINA, ALI ONDA TREBA DODATI I REVIEW IZMEDJU GOSTA I SMESTAJA" style="shape=note;size=20;whiteSpace=wrap;html=1;" vertex="1" parent="1">
          <mxGeometry x="-160" y="425" width="190" height="120" as="geometry" />
        </mxCell>
        <mxCell id="FNh4Q3ipCf9CpvlprsuN-35" value="PRICELIST BI TREBALO UVEZATI U LANAC SLABIH ENTITETA KAO U BAZAMA" style="shape=note;size=20;whiteSpace=wrap;html=1;" vertex="1" parent="1">
          <mxGeometry x="770" y="700" width="160" height="100" as="geometry" />
        </mxCell>
        <mxCell id="FNh4Q3ipCf9CpvlprsuN-36" value="NOTIFIKACIJE IDU IZ SISTEMA KA KORISNIKU (ALI NE I ADMINU)&amp;nbsp;" style="shape=note;size=20;whiteSpace=wrap;html=1;" vertex="1" parent="1">
          <mxGeometry x="90" y="580" width="200" height="90" as="geometry" />
        </mxCell>
        <mxCell id="FNh4Q3ipCf9CpvlprsuN-37" value="RESERVATION VEZA IZMEDJU SMESTAJA I GOSTA" style="shape=note;size=20;whiteSpace=wrap;html=1;" vertex="1" parent="1">
          <mxGeometry x="440" y="380" width="100" height="100" as="geometry" />
        </mxCell>
        <mxCell id="FNh4Q3ipCf9CpvlprsuN-38" value="IS" style="shape=rhombus;double=1;perimeter=rhombusPerimeter;whiteSpace=wrap;html=1;align=center;" vertex="1" parent="1">
          <mxGeometry x="280" y="110" width="120" height="60" as="geometry" />
        </mxCell>
        <mxCell id="FNh4Q3ipCf9CpvlprsuN-39" value="PERSON" style="shape=ext;margin=3;double=1;whiteSpace=wrap;html=1;align=center;" vertex="1" parent="1">
          <mxGeometry x="480" y="120" width="100" height="40" as="geometry" />
        </mxCell>
      </root>
    </mxGraphModel>
  </diagram>
</mxfile>
